<mxfile host="app.diagrams.net" modified="2022-04-28T13:51:14.079Z" agent="5.0 (Windows NT 10.0; Win64; x64) AppleWebKit/537.36 (KHTML, like Gecko) Chrome/100.0.4896.127 Safari/537.36 Edg/100.0.1185.50" etag="MWs5gCyuhQ8F61M_Spl-" version="17.4.6" type="github">
  <diagram id="wgK38wxo8l39rJCk8lE9" name="Page-1">
    <mxGraphModel dx="1038" dy="579" grid="1" gridSize="10" guides="1" tooltips="1" connect="1" arrows="1" fold="1" page="1" pageScale="1" pageWidth="850" pageHeight="1100" math="0" shadow="0">
      <root>
        <mxCell id="0" />
        <mxCell id="1" parent="0" />
        <mxCell id="uUGCTWdDXTjWg7dvxYVN-4" value="" style="edgeStyle=orthogonalEdgeStyle;rounded=0;orthogonalLoop=1;jettySize=auto;html=1;" edge="1" parent="1" source="uUGCTWdDXTjWg7dvxYVN-2" target="uUGCTWdDXTjWg7dvxYVN-3">
          <mxGeometry relative="1" as="geometry" />
        </mxCell>
        <mxCell id="uUGCTWdDXTjWg7dvxYVN-2" value="start" style="rounded=1;whiteSpace=wrap;html=1;" vertex="1" parent="1">
          <mxGeometry x="210" y="30" width="90" height="20" as="geometry" />
        </mxCell>
        <mxCell id="uUGCTWdDXTjWg7dvxYVN-6" value="yes" style="edgeStyle=orthogonalEdgeStyle;rounded=0;orthogonalLoop=1;jettySize=auto;html=1;" edge="1" parent="1" source="uUGCTWdDXTjWg7dvxYVN-3" target="uUGCTWdDXTjWg7dvxYVN-5">
          <mxGeometry relative="1" as="geometry" />
        </mxCell>
        <mxCell id="uUGCTWdDXTjWg7dvxYVN-8" value="No" style="edgeStyle=orthogonalEdgeStyle;rounded=0;orthogonalLoop=1;jettySize=auto;html=1;" edge="1" parent="1" source="uUGCTWdDXTjWg7dvxYVN-3" target="uUGCTWdDXTjWg7dvxYVN-7">
          <mxGeometry relative="1" as="geometry" />
        </mxCell>
        <mxCell id="uUGCTWdDXTjWg7dvxYVN-3" value="IF pop creation index 0(leader)" style="rhombus;whiteSpace=wrap;html=1;" vertex="1" parent="1">
          <mxGeometry x="215" y="100" width="80" height="80" as="geometry" />
        </mxCell>
        <mxCell id="uUGCTWdDXTjWg7dvxYVN-10" value="" style="edgeStyle=orthogonalEdgeStyle;rounded=0;orthogonalLoop=1;jettySize=auto;html=1;" edge="1" parent="1" source="uUGCTWdDXTjWg7dvxYVN-5" target="uUGCTWdDXTjWg7dvxYVN-9">
          <mxGeometry relative="1" as="geometry" />
        </mxCell>
        <mxCell id="uUGCTWdDXTjWg7dvxYVN-5" value="set pop as leader,locked attak,sight and stop search data" style="whiteSpace=wrap;html=1;" vertex="1" parent="1">
          <mxGeometry x="195" y="220" width="120" height="60" as="geometry" />
        </mxCell>
        <mxCell id="uUGCTWdDXTjWg7dvxYVN-7" value="set the pop is child/follower" style="whiteSpace=wrap;html=1;" vertex="1" parent="1">
          <mxGeometry x="60" y="110" width="120" height="60" as="geometry" />
        </mxCell>
        <mxCell id="uUGCTWdDXTjWg7dvxYVN-12" value="" style="edgeStyle=orthogonalEdgeStyle;rounded=0;orthogonalLoop=1;jettySize=auto;html=1;entryX=0;entryY=0.5;entryDx=0;entryDy=0;" edge="1" parent="1" source="uUGCTWdDXTjWg7dvxYVN-9" target="uUGCTWdDXTjWg7dvxYVN-11">
          <mxGeometry relative="1" as="geometry" />
        </mxCell>
        <mxCell id="uUGCTWdDXTjWg7dvxYVN-9" value="set the animation related field and arrays" style="whiteSpace=wrap;html=1;" vertex="1" parent="1">
          <mxGeometry x="195" y="340" width="120" height="60" as="geometry" />
        </mxCell>
        <mxCell id="uUGCTWdDXTjWg7dvxYVN-14" value="" style="edgeStyle=orthogonalEdgeStyle;rounded=0;orthogonalLoop=1;jettySize=auto;html=1;" edge="1" parent="1" source="uUGCTWdDXTjWg7dvxYVN-11" target="uUGCTWdDXTjWg7dvxYVN-13">
          <mxGeometry relative="1" as="geometry" />
        </mxCell>
        <mxCell id="uUGCTWdDXTjWg7dvxYVN-11" value="set the visited card array,family person array" style="whiteSpace=wrap;html=1;" vertex="1" parent="1">
          <mxGeometry x="365" y="20" width="120" height="60" as="geometry" />
        </mxCell>
        <mxCell id="uUGCTWdDXTjWg7dvxYVN-16" value="" style="edgeStyle=orthogonalEdgeStyle;rounded=0;orthogonalLoop=1;jettySize=auto;html=1;" edge="1" parent="1" source="uUGCTWdDXTjWg7dvxYVN-13" target="uUGCTWdDXTjWg7dvxYVN-15">
          <mxGeometry relative="1" as="geometry" />
        </mxCell>
        <mxCell id="uUGCTWdDXTjWg7dvxYVN-13" value="set the game related boolean values" style="whiteSpace=wrap;html=1;" vertex="1" parent="1">
          <mxGeometry x="365" y="120" width="120" height="60" as="geometry" />
        </mxCell>
        <mxCell id="uUGCTWdDXTjWg7dvxYVN-18" value="" style="edgeStyle=orthogonalEdgeStyle;rounded=0;orthogonalLoop=1;jettySize=auto;html=1;" edge="1" parent="1" source="uUGCTWdDXTjWg7dvxYVN-15" target="uUGCTWdDXTjWg7dvxYVN-17">
          <mxGeometry relative="1" as="geometry" />
        </mxCell>
        <mxCell id="uUGCTWdDXTjWg7dvxYVN-15" value="set the pop status" style="whiteSpace=wrap;html=1;" vertex="1" parent="1">
          <mxGeometry x="365" y="220" width="120" height="60" as="geometry" />
        </mxCell>
        <mxCell id="uUGCTWdDXTjWg7dvxYVN-20" value="" style="edgeStyle=orthogonalEdgeStyle;rounded=0;orthogonalLoop=1;jettySize=auto;html=1;" edge="1" parent="1" source="uUGCTWdDXTjWg7dvxYVN-17" target="uUGCTWdDXTjWg7dvxYVN-19">
          <mxGeometry relative="1" as="geometry">
            <Array as="points">
              <mxPoint x="530" y="350" />
              <mxPoint x="530" y="210" />
            </Array>
          </mxGeometry>
        </mxCell>
        <mxCell id="uUGCTWdDXTjWg7dvxYVN-17" value="set the target of pop grp and path value" style="whiteSpace=wrap;html=1;" vertex="1" parent="1">
          <mxGeometry x="365" y="320" width="120" height="60" as="geometry" />
        </mxCell>
        <mxCell id="uUGCTWdDXTjWg7dvxYVN-22" value="" style="edgeStyle=orthogonalEdgeStyle;rounded=0;orthogonalLoop=1;jettySize=auto;html=1;" edge="1" parent="1" source="uUGCTWdDXTjWg7dvxYVN-19" target="uUGCTWdDXTjWg7dvxYVN-21">
          <mxGeometry relative="1" as="geometry" />
        </mxCell>
        <mxCell id="uUGCTWdDXTjWg7dvxYVN-19" value="return object" style="whiteSpace=wrap;html=1;" vertex="1" parent="1">
          <mxGeometry x="540" y="180" width="120" height="60" as="geometry" />
        </mxCell>
        <mxCell id="uUGCTWdDXTjWg7dvxYVN-21" value="end" style="ellipse;whiteSpace=wrap;html=1;" vertex="1" parent="1">
          <mxGeometry x="540" y="300" width="120" height="60" as="geometry" />
        </mxCell>
      </root>
    </mxGraphModel>
  </diagram>
</mxfile>
